<?xml version="1.0" encoding="UTF-8" standalone="no"?>
<!-- Created with Inkscape (http://www.inkscape.org/) -->

<svg
   xmlns:dc="http://purl.org/dc/elements/1.1/"
   xmlns:cc="http://creativecommons.org/ns#"
   xmlns:rdf="http://www.w3.org/1999/02/22-rdf-syntax-ns#"
   xmlns:svg="http://www.w3.org/2000/svg"
   xmlns="http://www.w3.org/2000/svg"
   xmlns:sodipodi="http://sodipodi.sourceforge.net/DTD/sodipodi-0.dtd"
   xmlns:inkscape="http://www.inkscape.org/namespaces/inkscape"
   width="220.16"
   height="233.95"
   id="svg2"
   version="1.1"
   inkscape:version="0.48.4 r9939"
   sodipodi:docname="einteis.svg">
  <defs
     id="defs4" />
  <sodipodi:namedview
     id="base"
     pagecolor="#ffffff"
     bordercolor="#666666"
     borderopacity="1.0"
     inkscape:pageopacity="0.0"
     inkscape:pageshadow="2"
     inkscape:zoom="0.2764422"
     inkscape:cx="-769.73427"
     inkscape:cy="520.63659"
     inkscape:document-units="px"
     inkscape:current-layer="layer1"
     showgrid="false"
     inkscape:window-width="1366"
     inkscape:window-height="706"
     inkscape:window-x="-8"
     inkscape:window-y="-8"
     inkscape:window-maximized="1"
     showguides="true"
     inkscape:guide-bbox="true" />
  <metadata
     id="metadata7">
    <rdf:RDF>
      <cc:Work
         rdf:about="">
        <dc:format>image/svg+xml</dc:format>
        <dc:type
           rdf:resource="http://purl.org/dc/dcmitype/StillImage" />
        <dc:title></dc:title>
      </cc:Work>
    </rdf:RDF>
  </metadata>
  <g
     inkscape:label="Layer 1"
     inkscape:groupmode="layer"
     id="layer1"
     transform="translate(0,-818.41215)">
    <g
       id="g3206"
       transform="matrix(0.64241185,0,0,0.64241185,571.26474,548.69115)">
      <path
         sodipodi:nodetypes="scscsccsssssccsccssssssssssccssssssccssssscscsssssscssscssssssscs"
         inkscape:connector-curvature="0"
         id="path3006"
         d="m -677.53673,593.40625 c 4.54682,-0.0282 7.18675,0.0155 7.28125,0.1875 0.39717,0.72311 -1.36646,14.78485 -3.9375,31.25 -2.57096,16.46511 -4.30243,30.45369 -3.8125,31.0625 0.84251,1.04703 10.77301,-0.18293 13.625,-1.6875 0.72978,-0.38499 1.80342,-3.67701 2.375,-7.3125 1.7127,-10.89476 7.6625,-20.09959 14.09375,-21.78125 1.33292,-0.34856 4.13617,-0.26749 6.25,0.15625 8.80981,1.7661 14.57272,14.2404 15.1875,32.90625 0.40712,12.36086 -1.41808,21.7072 -5.625,28.59375 -4.47906,7.33195 -8.3948,9.21248 -15.125,7.25 -2.89903,-0.84536 -5.75241,-2.38506 -6.3125,-3.40625 -1.89122,-3.44821 -3.41157,-0.56091 -4.84375,9.09375 0.50405,16.50993 -0.45051,7.83717 -2.46875,18.9375 -2.722,15.07823 -7.56654,25.34572 -16.15625,34.1875 -9.25054,9.52198 -13.31842,12.5854 -25.65625,19.34375 -32.7784,17.9344 -72.07721,11.08921 -82.59375,7.65625 -16.38847,-5.1822 -28.92069,-12.15677 -41.03125,-22.875 -6.78142,-6.00171 -7.17793,-6.57366 -5.375,-7.5625 0.7436,-0.40784 27.71072,-1.57299 59.9375,-2.625 32.22686,-1.05205 59.06386,-2.19223 59.625,-2.5 2.96292,-1.62506 -10.81275,-18.07403 -21.03125,-25.125 -17.3163,-11.94847 -34.41943,-17.04805 -57.0625,-16.96875 -13.57775,0.0475 -22.12146,2.30094 -36.78125,9.625 -11.30028,5.64564 -12.38568,5.98766 -13.21875,4.46875 -0.4991,-0.91001 -1.49886,-6.56842 -2.21875,-12.59375 -0.7199,-6.02534 -1.74827,-14.54227 -2.3125,-18.9375 -0.56423,-4.39524 -1.05935,-12.34315 -1.09375,-17.65625 -0.0689,-10.60185 1.07312,-30.26707 1.78125,-30.625 0.24557,-0.12412 1.7353,0.74618 3.3125,1.90625 4.26631,3.13802 7.25535,1.4652 10.65625,-5.9375 4.6501,-10.12167 10.00158,-14.33432 19.9375,-15.71875 3.06572,-0.42718 6.12699,-1.09309 6.8125,-1.46875 2.10373,-1.15285 2.95687,-5.20217 1.59375,-7.6875 -1.63618,-2.9832 -4.82189,-3.73853 -11.6875,-2.78125 -10.74339,1.49802 -22.25406,10.02663 -26.8125,19.875 -0.969,2.09341 -2.07595,3.73044 -2.4375,3.625 -1.65525,-0.48264 3.67701,-27.64563 5.65625,-28.8125 2.21402,-1.30529 127.64101,-5.86477 159.46875,-6.0625 z m -55.9375,10.625 c -2.19663,-0.0555 -4.02481,0.22017 -5.21875,0.875 -2.0664,1.13335 -3.07027,5.9053 -1.75,8.3125 0.72487,1.32163 2.35902,2.29521 4.28125,2.5 13.75562,1.46565 18.16007,4.22921 23.8125,14.9375 3.07802,5.83122 4.58674,7.86392 6.125,8.3125 3.38382,0.9867 7.11833,-1.72272 7.40625,-5.40625 0.38076,-4.87134 -7.12532,-17.91318 -12.75,-22.15625 -5.47937,-4.1335 -15.31636,-7.20853 -21.90625,-7.375 z m 0.1875,31.09375 c -0.55366,-0.0312 -1.12248,0.002 -1.6875,0.0625 -1.60804,0.1709 -3.04878,0.58488 -4.3125,1.21875 -2.7802,1.39452 -4.69031,3.86285 -5.625,7.34375 -0.91423,3.405 -0.6989,4.83268 1.3125,8.5 2.11692,3.85972 2.94334,4.508 6.6875,5.375 3.39904,0.78712 5.07906,0.53754 8.28125,-1.21875 3.40192,-1.86583 4.26692,-2.90543 5.40625,-6.8125 1.03901,-3.56324 0.91728,-5.34238 -0.4375,-7.8125 -2.2031,-4.01685 -5.74937,-6.43772 -9.625,-6.65625 z m -82.28125,3.96875 c -1.49155,-0.0772 -2.75655,0.37946 -4.71875,1.46875 -5.76645,3.20113 -7.45306,9.03494 -4.25,14.875 2.2533,4.10836 9.6714,6.06158 14,3.6875 2.52031,-1.38231 3.57921,-2.78878 4.625,-6.375 1.80681,-6.19612 -0.6169,-11.02336 -6.53125,-12.96875 -1.25011,-0.41116 -2.23007,-0.6412 -3.125,-0.6875 z"
         style="fill:#e4a968" />
      <path
         sodipodi:nodetypes="ccccccccccssssssccscscssccssssssccccccccssscscssssscssscsssscsssss"
         inkscape:connector-curvature="0"
         id="path3171"
         d="m -667.47423,419.85218 c 2.12331,26.32907 -3.39223,55.2189 6.375,79 11.33559,-17.73689 29.17317,-19.28807 47.15625,-20.40625 8.34976,24.20659 16.16086,48.63708 1.25,82.8125 37.11846,-5.46795 49.24672,-0.50203 66.14402,20.99157 l -50.96875,25.5 c 15.77396,19.95913 30.23681,39.91587 29.3125,59.875 -13.5892,0 -14.32661,-7.64392 -31.73777,0 -5.89013,16.69308 28.20581,69.24511 -29.78125,43.96875 -9.87196,-1.89492 -19.82224,-3.58499 -29.46875,-6.15625 0.20073,-1.58597 0.46786,-3.3953 0.8125,-5.71875 1.43218,-9.65466 2.95253,-12.54196 4.84375,-9.09375 0.56009,1.02119 3.41347,2.56089 6.3125,3.40625 6.7302,1.96248 10.64594,0.082 15.125,-7.25 4.20692,-6.88655 6.03212,-16.23289 5.625,-28.59375 -0.61478,-18.66585 -6.37769,-31.14015 -15.1875,-32.90625 -2.11383,-0.42374 -4.91708,-0.50481 -6.25,-0.15625 -6.43125,1.68166 -12.38105,10.88649 -14.09375,21.78125 -0.57158,3.63549 -1.64522,6.92751 -2.375,7.3125 -2.85199,1.50457 -12.78249,2.73453 -13.625,1.6875 -0.48993,-0.60881 1.24154,-14.59739 3.8125,-31.0625 2.57104,-16.46515 4.33467,-30.52689 3.9375,-31.25 -0.0945,-0.17204 -2.73443,-0.21575 -7.28125,-0.1875 -31.82774,0.19773 -157.25473,4.75721 -159.46875,6.0625 -1.97924,1.16687 -7.3115,28.32986 -5.65625,28.8125 0.36155,0.10544 1.4685,-1.53159 2.4375,-3.625 4.55844,-9.84837 16.06911,-18.37698 26.8125,-19.875 6.86561,-0.95728 10.05132,-0.20195 11.6875,2.78125 1.36312,2.48533 0.50998,6.53465 -1.59375,7.6875 -0.68551,0.37566 -3.74678,1.04157 -6.8125,1.46875 -9.93592,1.38443 -15.2874,5.59708 -19.9375,15.71875 -3.4009,7.4027 -6.38994,9.07552 -10.65625,5.9375 -1.5772,-1.16007 -3.06693,-2.03037 -3.3125,-1.90625 -0.32143,0.16247 -0.74736,4.37845 -1.09375,9.84375 -0.65447,-0.53303 -1.31868,-1.0773 -1.96875,-1.625 -20.3838,-22.50711 -58.58076,-50.71974 -34.375,-125.46032 l 28,8.90625 c 17.67355,-34.72219 37.2315,-65.71771 65,-80.25 l -14.03125,56.0625 c 31.90706,-49.32685 75.95276,-78.92048 135.03125,-84.09375 z m -66,184.17907 c 6.58989,0.16647 16.42688,3.2415 21.90625,7.375 5.62468,4.24307 13.13076,17.28491 12.75,22.15625 -0.28792,3.68353 -4.02243,6.39295 -7.40625,5.40625 -1.53826,-0.44858 -3.04698,-2.48128 -6.125,-8.3125 -5.65243,-10.70829 -10.05688,-13.47185 -23.8125,-14.9375 -1.92223,-0.20479 -3.55638,-1.17837 -4.28125,-2.5 -1.32027,-2.4072 -0.3164,-7.17915 1.75,-8.3125 1.19394,-0.65483 3.02212,-0.93049 5.21875,-0.875 z m 0.1875,31.09375 c 3.87563,0.21853 7.4219,2.6394 9.625,6.65625 1.35478,2.47012 1.47651,4.24926 0.4375,7.8125 -1.13933,3.90707 -2.00433,4.94667 -5.40625,6.8125 -3.20219,1.75629 -4.88221,2.00587 -8.28125,1.21875 -3.74416,-0.867 -4.57058,-1.51528 -6.6875,-5.375 -2.0114,-3.66732 -2.22673,-5.095 -1.3125,-8.5 0.93469,-3.4809 2.8448,-5.94923 5.625,-7.34375 1.26372,-0.63387 2.70446,-1.04785 4.3125,-1.21875 0.56502,-0.0601 1.13384,-0.0937 1.6875,-0.0625 z m -82.28125,3.96875 c 0.89493,0.0463 1.87489,0.27634 3.125,0.6875 5.91435,1.94539 8.33806,6.77263 6.53125,12.96875 -1.04579,3.58622 -2.10469,4.99269 -4.625,6.375 -4.3286,2.37408 -11.7467,0.42086 -14,-3.6875 -3.20306,-5.84006 -1.51645,-11.67387 4.25,-14.875 1.9622,-1.08929 3.2272,-1.54592 4.71875,-1.46875 z"
         style="fill:#eeeeee;stroke:none" />
      <path
         sodipodi:nodetypes="cscczccscc"
         inkscape:connector-curvature="0"
         id="rect3179"
         d="m -789.64884,700.66277 c 0.84556,0.003 1.65802,0.0423 2.42821,0.0673 32.12394,1.04189 57.00827,13.90307 76.07109,39.29376 2.50645,3.33833 2.61895,3.80062 0.93135,4.37345 -1.04428,0.3545 -35.81297,4.5501 -67.38966,2.99413 -31.57669,-1.55597 -57.97945,6.23879 -84.16242,0.81914 7.42078,-18.03244 13.00318,-26.70833 26.08625,-33.99007 19.02003,-10.55204 19.87506,-10.93497 28.43942,-12.38022 4.24662,-0.71663 11.67665,-1.20317 17.59576,-1.17747 z"
         style="fill:#eeeeee;fill-opacity:1;stroke:none" />
    </g>
  </g>
</svg>
